<?xml version="1.0" encoding="utf-8"?>
<!-- Generator: Adobe Illustrator 19.0.0, SVG Export Plug-In . SVG Version: 6.00 Build 0)  -->
<svg version="1.1" id="Calque_1" xmlns="http://www.w3.org/2000/svg" xmlns:xlink="http://www.w3.org/1999/xlink" x="0px" y="0px"
	 viewBox="0 0 300 300" style="enable-background:new 0 0 300 300;" xml:space="preserve">
<style type="text/css">
	.st0{fill:#873D46;}
	.st1{fill:#F9AFBB;}
</style>
<g id="XMLID_11_">
	<ellipse id="XMLID_9_" class="st0" cx="151.9" cy="150.9" rx="142.2" ry="143.9"/>
	<ellipse id="XMLID_8_" class="st1" cx="151.9" cy="127.4" rx="55.3" ry="72.3"/>
	<path id="XMLID_7_" class="st1" d="M151.9,205.1c-46.3,0-87,14.3-110.8,36c26.1,32.7,66,53.7,110.8,53.7c44.8,0,84.7-21,110.8-53.7
		C238.9,219.4,198.2,205.1,151.9,205.1z"/>
	<path id="XMLID_1_" class="st1" d="M169.6,242.3h-35.4c-5.3,0-9.6-4.3-9.6-9.6v-72.1c0-5.3,4.3-9.6,9.6-9.6h35.4
		c5.3,0,9.6,4.3,9.6,9.6v72.1C179.2,238,174.9,242.3,169.6,242.3z"/>
	<path id="XMLID_6_" class="st1" d="M104.2,130.7c3.2,9.4,1.9,18.4-2.9,20s-11.3-4.6-14.5-13.9c-3.2-9.4-1.9-18.4,2.9-20
		C94.5,115.1,101,121.3,104.2,130.7z"/>
	<path id="XMLID_5_" class="st1" d="M199.6,130.7c-3.2,9.4-1.9,18.4,2.9,20s11.3-4.6,14.5-13.9c3.2-9.4,1.9-18.4-2.9-20
		C209.3,115.1,202.8,121.3,199.6,130.7z"/>
	<path id="XMLID_4_" class="st1" d="M103.5,130.4c-7.2-13.2-14.6-27.3-14.2-42.4C89.6,73,101,57,115.9,57.6c2.6,0.1,5.2,0.7,7.8,0.3
		c5.2-0.7,9-5,13.2-8.1c9.4-7.1,22.6-8.8,33.5-4.3c6.7,2.8,12.4,7.6,19,10.8c12.2,5.9,27.3,5.3,39-1.6c-2.4,4.6-6.6,8.4-11.4,10.3
		c4.5,1.4,9.4,1.3,13.8-0.4c-2.6,4.8-7,8.7-12.1,10.7c3.8,0.3,7.6,0.5,11.4,0.8c-3.2,4.6-7.8,8.3-13.1,10.3c3,0.1,5.9,0.2,8.9,0.3
		c-2.2,6.6-7.9,11.9-14.7,13.6c1.9,0,3.8,0.1,5.7,0.1c-6.3,9.2-12.5,18.3-18.8,27.5c-1.8,2.6-3.7,5.3-6.3,7
		c-2.2,1.4-4.8,2.1-7.3,2.7c-18.6,4.2-37.8,5.5-56.7,3.7c-6.5-0.6-13.3-1.7-18.4-5.7c-5.2-4-7.9-11.9-4.4-17.4"/>
	<path id="XMLID_3_" class="st1" d="M116.3,218.7c0.4-7.6,1.3-15.2,2.8-22.6c3.7,4.3,10,4.8,15.6,5.1c8.5,0.4,17,0.7,25.6,1.1
		c1,5.9,1.7,12.8-2.5,17c-1.9,1.9-4.6,2.9-7.3,3.6c-5.7,1.6-11.7,2.5-17.7,2.5c-7.1,0-15.5-2.1-17.8-8.9c0.8-0.6,1.5-1.3,2.3-1.9"/>
	<path id="XMLID_2_" class="st1" d="M187.6,218.7c-0.4-7.6-1.3-15.2-2.8-22.6c-3.7,4.3-10,4.8-15.6,5.1c-8.5,0.4-17,0.7-25.6,1.1
		c-1,5.9-1.7,12.8,2.5,17c1.9,1.9,4.6,2.9,7.3,3.6c5.7,1.6,11.7,2.5,17.7,2.5c7.1,0,15.5-2.1,17.8-8.9c-0.8-0.6-1.5-1.3-2.3-1.9"/>
</g>
</svg>
