<?xml version="1.0" encoding="utf-8"?>
<!-- Generator: Adobe Illustrator 19.0.0, SVG Export Plug-In . SVG Version: 6.00 Build 0)  -->
<svg version="1.1" id="Calque_1" xmlns="http://www.w3.org/2000/svg" xmlns:xlink="http://www.w3.org/1999/xlink" x="0px" y="0px"
	 viewBox="0 0 300 400" style="enable-background:new 0 0 300 400;" xml:space="preserve">
<style type="text/css">
	.st0{fill:#2C2C2C;}
	.st1{fill:url(#XMLID_6_);stroke:#383838;stroke-miterlimit:10;}
	.st2{fill:url(#XMLID_7_);stroke:#545454;stroke-miterlimit:10;}
	.st3{fill:#1C212B;}
	.st4{fill:#011226;}
	.st5{fill:#232323;}
	.st6{font-family:'FranklinGothic-Demi';}
	.st7{font-size:10.6123px;}
	.st8{fill:none;stroke:#6D6C6C;stroke-miterlimit:10;}
	.st9{fill:#4D4D4D;}
	.st10{font-family:'CorbelLight';}
	.st11{font-size:8.4898px;}
	.st12{fill:#EF1233;}
	.st13{fill:#FFFFFF;}
	.st14{font-family:'Corbel-Bold';}
	.st15{font-size:9.1973px;}
	.st16{font-size:7.0748px;}
	.st17{font-size:7.7823px;}
	.st18{fill:url(#XMLID_8_);stroke:#383838;stroke-miterlimit:10;}
	.st19{fill:url(#XMLID_13_);stroke:#545454;stroke-miterlimit:10;}
	.st20{font-size:15.4988px;}
</style>
<g id="XMLID_357_">
	<g id="XMLID_346_">
		<g id="XMLID_272_">
			
				<image style="overflow:visible;" width="189" height="367" id="XMLID_273_" xlink:href="D474B55E.png"  transform="matrix(1 0 0 1 105 -1)">
			</image>
			<g id="XMLID_274_">
				<g id="XMLID_275_">
					<path id="XMLID_276_" class="st0" d="M274,313.1c0,16-13,28.9-28.9,28.9h-95.1c-16,0-28.9-13-28.9-28.9V40.9
						c0-16,13-28.9,28.9-28.9h95.1c16,0,28.9,13,28.9,28.9V313.1z"/>
					<g id="XMLID_277_">
						
							<image style="overflow:visible;" width="3" height="24" id="XMLID_278_" xlink:href="D474B55D.png"  transform="matrix(1 0 0 1 121 81)">
						</image>
						
							<image style="overflow:visible;" width="4" height="38" id="XMLID_279_" xlink:href="D474B55A.png"  transform="matrix(1 0 0 1 273 89)">
						</image>
						
							<image style="overflow:visible;" width="3" height="24" id="XMLID_280_" xlink:href="D474B555.png"  transform="matrix(1 0 0 1 121 111)">
						</image>
					</g>
					<linearGradient id="XMLID_6_" gradientUnits="userSpaceOnUse" x1="198" y1="13.5" x2="198" y2="341.5">
						<stop  offset="3.763440e-002" style="stop-color:#5A5B5D"/>
						<stop  offset="0.3925" style="stop-color:#FFFFFF"/>
						<stop  offset="1" style="stop-color:#474849"/>
					</linearGradient>
					<path id="XMLID_281_" class="st1" d="M273.5,313.9c0,15.2-12.4,27.6-27.6,27.6h-95.8c-15.2,0-27.6-12.4-27.6-27.6V41.1
						c0-15.2,12.4-27.6,27.6-27.6h95.8c15.2,0,27.6,12.4,27.6,27.6V313.9z"/>
					<linearGradient id="XMLID_7_" gradientUnits="userSpaceOnUse" x1="124.5" y1="179" x2="272.5" y2="179">
						<stop  offset="0" style="stop-color:#231F20"/>
						<stop  offset="1" style="stop-color:#0D0D0D"/>
					</linearGradient>
					<path id="XMLID_282_" class="st2" d="M272.5,315.9c0,14.1-11.5,25.6-25.6,25.6h-96.8c-14.1,0-25.6-11.5-25.6-25.6V42.1
						c0-14.1,11.5-25.6,25.6-25.6h96.8c14.1,0,25.6,11.5,25.6,25.6V315.9z"/>
					
						<image style="overflow:visible;" width="139" height="314" id="XMLID_283_" xlink:href="D474B554.png"  transform="matrix(1 0 0 1 129 21)">
					</image>
					
						<image style="overflow:visible;" width="29" height="326" id="XMLID_284_" xlink:href="D474B553.png"  transform="matrix(1 0 0 1 124 15)">
					</image>
					
						<image style="overflow:visible;" width="29" height="326" id="XMLID_289_" xlink:href="D474B568.png"  transform="matrix(1 0 0 1 244 15)">
					</image>
					
						<image style="overflow:visible;opacity:0.51;" width="115" height="4" id="XMLID_290_" xlink:href="D474B56A.png"  transform="matrix(1 0 0 1 142 20)">
					</image>
					
						<image style="overflow:visible;" width="110" height="10" id="XMLID_291_" xlink:href="D474B56E.png"  transform="matrix(1 0 0 1 145 12)">
					</image>
					
						<image style="overflow:visible;" width="115" height="8" id="XMLID_292_" xlink:href="B4DE3639.png"  transform="matrix(1 0 0 1 142 335)">
					</image>
					<g id="XMLID_293_">
						<ellipse id="XMLID_294_" class="st3" cx="219.6" cy="27.8" rx="3.3" ry="3.5"/>
						<g id="XMLID_295_">
							<ellipse id="XMLID_296_" class="st4" cx="219.6" cy="27.8" rx="2.2" ry="2.3"/>
							
								<image style="overflow:visible;" width="5" height="5" id="XMLID_297_" xlink:href="B4DE363E.png"  transform="matrix(1 0 0 1 217 25)">
							</image>
						</g>
					</g>
					<path id="XMLID_298_" class="st5" d="M208.7,30h-21.2c-0.5,0-1-0.9-1-1.5l0,0c0-0.6,0.4-1.5,1-1.5h21.2c0.5,0,1,0.9,1,1.5l0,0
						C209.7,29.1,209.3,30,208.7,30z"/>
					<g id="XMLID_299_">
						<path id="XMLID_300_" class="st0" d="M123,59h-2c-0.2,0,0,0,0-0.2v-0.8c0-0.1-0.3,0.1-0.2,0.1h2.2V59z"/>
						<path id="XMLID_301_" class="st0" d="M122.9,70H121c-0.1,0-0.1-0.1-0.1-0.1v-1.3c0-0.3,0.3-0.6,0.6-0.6h1.4V70z"/>
					</g>
					<g id="XMLID_302_">
						<rect id="XMLID_303_" x="122.9" y="46" class="st0" width="2" height="1"/>
						<rect id="XMLID_304_" x="273.2" y="46" class="st0" width="2" height="1"/>
					</g>
					<g id="XMLID_305_">
						<rect id="XMLID_306_" x="122.9" y="311" class="st0" width="2" height="1"/>
						<rect id="XMLID_307_" x="273.2" y="311" class="st0" width="2" height="1"/>
					</g>
				</g>
			</g>
		</g>
		<g id="XMLID_345_">
			<g id="XMLID_336_">
				<g id="XMLID_308_">
					
						<image style="overflow:visible;" width="1212" height="1169" id="XMLID_309_" xlink:href="../../../../rounded.png"  transform="matrix(2.680349e-002 0 0 2.854836e-002 184.1223 78.3184)">
					</image>
					<text id="XMLID_314_" transform="matrix(0.9534 0 0 1 178.5752 124.7188)" class="st6 st7">MTATITRA</text>
				</g>
				<g id="XMLID_315_">
					<g id="XMLID_316_">
						<line id="XMLID_317_" class="st8" x1="142" y1="179.5" x2="254" y2="179.5"/>
						
							<image style="overflow:visible;" width="52" height="52" id="XMLID_318_" xlink:href="../../../../Secured Letter_52px_3.png"  transform="matrix(0.2193 0 0 0.2518 142.9687 162.2659)">
						</image>
						<text id="XMLID_323_" transform="matrix(0.8915 0 0 1 163.7305 170.9556)" class="st9 st10 st11">exemple@email.com</text>
					</g>
					<g id="XMLID_324_">
						<line id="XMLID_325_" class="st8" x1="142" y1="220.5" x2="254" y2="220.5"/>
						<text id="XMLID_326_" transform="matrix(0.8915 0 0 1 163.7305 212.0107)" class="st9 st10 st11">Mot de passe</text>
						
							<image style="overflow:visible;" width="52" height="52" id="XMLID_327_" xlink:href="../../../../Key_52px_1.png"  transform="matrix(0.1986 0 0 0.1921 143.5073 205.1438)">
						</image>
					</g>
				</g>
				<g id="XMLID_332_">
					<rect id="XMLID_333_" x="145" y="264" class="st12" width="105" height="22"/>
					<text id="XMLID_334_" transform="matrix(0.9534 0 0 1 171.7061 277.3955)" class="st13 st14 st15">Se connecter</text>
				</g>
				
					<image style="overflow:visible;" width="48" height="48" id="XMLID_337_" xlink:href="../../../../Checked_48px.png"  transform="matrix(0.1674 0 0 0.1876 145.9931 236.4446)">
				</image>
				<text id="XMLID_342_" transform="matrix(0.9534 0 0 1 156.9385 243.7334)" class="st10 st16">Se souvenir de moi</text>
			</g>
			<text id="XMLID_343_" transform="matrix(0.8991 0 0 1 171.707 300.332)" class="st10 st16">Mot de passe oublié ?</text>
			<text id="XMLID_344_" transform="matrix(0.9534 0 0 1 184.1221 311.9102)" class="st12 st14 st17">S’inscrire</text>
		</g>
	</g>
	<g id="XMLID_356_">
		<g id="XMLID_429_">
			
				<image style="overflow:visible;" width="189" height="367" id="XMLID_472_" xlink:href="B4DE3628.png"  transform="matrix(1 0 0 1 11 29)">
			</image>
			<g id="XMLID_430_">
				<g id="XMLID_431_">
					<path id="XMLID_471_" class="st0" d="M180,344.1c0,16-13,28.9-28.9,28.9H55.9C40,373,27,360,27,344.1V71.9C27,56,40,43,55.9,43
						h95.1c16,0,28.9,13,28.9,28.9V344.1z"/>
					<g id="XMLID_467_">
						
							<image style="overflow:visible;" width="3" height="24" id="XMLID_470_" xlink:href="B4DE362B.png"  transform="matrix(1 0 0 1 26 111)">
						</image>
						
							<image style="overflow:visible;" width="3" height="39" id="XMLID_469_" xlink:href="B4DE3629.png"  transform="matrix(1 0 0 1 179 119)">
						</image>
						
							<image style="overflow:visible;" width="3" height="24" id="XMLID_468_" xlink:href="B4DE362F.png"  transform="matrix(1 0 0 1 26 142)">
						</image>
					</g>
					<linearGradient id="XMLID_8_" gradientUnits="userSpaceOnUse" x1="105" y1="44.5" x2="105" y2="372.5">
						<stop  offset="3.763440e-002" style="stop-color:#5A5B5D"/>
						<stop  offset="0.3925" style="stop-color:#FFFFFF"/>
						<stop  offset="1" style="stop-color:#474849"/>
					</linearGradient>
					<path id="XMLID_466_" class="st18" d="M180.5,344.9c0,15.2-12.4,27.6-27.6,27.6H57.1c-15.2,0-27.6-12.4-27.6-27.6V72.1
						c0-15.2,12.4-27.6,27.6-27.6h95.8c15.2,0,27.6,12.4,27.6,27.6V344.9z"/>
					<linearGradient id="XMLID_13_" gradientUnits="userSpaceOnUse" x1="30.5" y1="208" x2="178.5" y2="208">
						<stop  offset="0" style="stop-color:#231F20"/>
						<stop  offset="1" style="stop-color:#0D0D0D"/>
					</linearGradient>
					<path id="XMLID_465_" class="st19" d="M178.5,344.9c0,14.1-11.5,25.6-25.6,25.6H56.1c-14.1,0-25.6-11.5-25.6-25.6V71.1
						C30.5,57,42,45.5,56.1,45.5h96.8c14.1,0,25.6,11.5,25.6,25.6V344.9z"/>
					
						<image style="overflow:visible;" width="138" height="314" id="XMLID_460_" xlink:href="B4DE3643.png"  transform="matrix(1 0 0 1 35 51)">
					</image>
					
						<image style="overflow:visible;" width="30" height="325" id="XMLID_459_" xlink:href="B4DE364D.png"  transform="matrix(1 0 0 1 29 46)">
					</image>
					
						<image style="overflow:visible;" width="30" height="325" id="XMLID_458_" xlink:href="B4DE364F.png"  transform="matrix(1 0 0 1 149 46)">
					</image>
					
						<image style="overflow:visible;opacity:0.51;" width="115" height="3" id="XMLID_457_" xlink:href="B4DE3642.png"  transform="matrix(1 0 0 1 48 51)">
					</image>
					
						<image style="overflow:visible;" width="109" height="9" id="XMLID_456_" xlink:href="B4DE3641.png"  transform="matrix(1 0 0 1 51 43)">
					</image>
					
						<image style="overflow:visible;" width="115" height="8" id="XMLID_452_" xlink:href="B4DE3645.png"  transform="matrix(1 0 0 1 48 365)">
					</image>
					<g id="XMLID_446_">
						<ellipse id="XMLID_451_" class="st3" cx="125.2" cy="58.2" rx="3.3" ry="3.5"/>
						<g id="XMLID_447_">
							<ellipse id="XMLID_450_" class="st4" cx="125.2" cy="58.2" rx="2.2" ry="2.3"/>
							
								<image style="overflow:visible;" width="5" height="5" id="XMLID_448_" xlink:href="B4DE3647.png"  transform="matrix(1 0 0 1 123 56)">
							</image>
						</g>
					</g>
					<path id="XMLID_445_" class="st5" d="M114.3,60H93.1c-0.5,0-1-0.4-1-1l0,0c0-0.6,0.4-1,1-1h21.2c0.5,0,1,0.4,1,1l0,0
						C115.3,59.6,114.8,60,114.3,60z"/>
					<g id="XMLID_438_">
						<path id="XMLID_444_" class="st0" d="M27.9,90h-1.3c-0.4,0-0.7-0.3-0.7-0.7v-1c0-0.2,0.2-0.4,0.4-0.4h1.6V90z"/>
						<path id="XMLID_439_" class="st0" d="M28,100h-1.4c-0.1,0-0.6,0-0.6-0.1V99c0-1.1,1.4-2,2.6-2H28V100z"/>
					</g>
					<g id="XMLID_435_">
						<rect id="XMLID_437_" x="27.9" y="76" class="st0" width="2" height="2"/>
						<rect id="XMLID_436_" x="178.3" y="76" class="st0" width="2" height="2"/>
					</g>
					<g id="XMLID_432_">
						<rect id="XMLID_434_" x="27.9" y="341" class="st0" width="2" height="2"/>
						<rect id="XMLID_433_" x="178.3" y="341" class="st0" width="2" height="2"/>
					</g>
				</g>
			</g>
		</g>
		<g id="XMLID_351_">
			<g id="XMLID_347_">
				<path id="XMLID_368_" class="st13" d="M68.8,154.9c0,0,37.7-0.5,40,0c0,0,1.4,1,0,1.8c0,0-6.1,0.8-40,0
					C68.8,156.7,67,155.7,68.8,154.9z"/>
				<path id="XMLID_367_" class="st13" d="M77.5,163.5c0,0,37.6-0.5,39.8,0c0,0,1.4,0.9,0,1.7c0,0-6.1,0.8-39.8,0
					C77.5,165.2,75.6,164.3,77.5,163.5z"/>
				<path id="XMLID_365_" class="st13" d="M87.5,171.9c0,0,33.2-0.4,35.2,0c0,0,1.3,0.8,0,1.5c0,0-5.4,0.7-35.2,0
					C87.5,173.4,85.8,172.6,87.5,171.9z"/>
				<ellipse id="XMLID_358_" class="st13" cx="120.6" cy="185.5" rx="8.3" ry="8.5"/>
				<ellipse id="XMLID_354_" class="st12" cx="120.6" cy="185.5" rx="6.5" ry="6.7"/>
				<ellipse id="XMLID_352_" class="st13" cx="90.8" cy="188.8" rx="8.3" ry="8.5"/>
				<ellipse id="XMLID_349_" class="st12" cx="90.8" cy="188.8" rx="6.5" ry="6.7"/>
				<path id="XMLID_348_" class="st13" d="M82.5,189.7c0,0,34.8-4.9,36.9-4.7c0,0,1.4,0.8,0.2,1.7c0,0-5.5,1.5-36.9,4.7
					C82.7,191.4,80.9,190.7,82.5,189.7z"/>
			</g>
			<text id="XMLID_350_" transform="matrix(0.9653 0 0 1 67.9922 335.9648)" class="st13 st6 st20">MTATITRA</text>
		</g>
	</g>
</g>
</svg>
