<?xml version="1.0" encoding="utf-8"?>
<!-- Generator: Adobe Illustrator 19.0.0, SVG Export Plug-In . SVG Version: 6.00 Build 0)  -->
<svg version="1.1" id="Calque_1" xmlns="http://www.w3.org/2000/svg" xmlns:xlink="http://www.w3.org/1999/xlink" x="0px" y="0px"
	 viewBox="0 0 300 300" style="enable-background:new 0 0 300 300;" xml:space="preserve">
<style type="text/css">
	.st0{fill:#A1A6A8;}
	.st1{fill:#578DD6;}
	.st2{fill:#36383A;}
	.st3{fill:#CBCFD3;}
	.st4{fill:#212223;}
	.st5{opacity:0.3;}
	.st6{fill:#F2F5F9;}
	.st7{fill:#F14760;}
	.st8{fill:#FFFFFF;}
	.st9{fill:#AA444E;}
	.st10{fill:#EF1653;}
	.st11{clip-path:url(#XMLID_2_);}
	.st12{fill:#9CA6B7;}
	.st13{fill:#F2F2F2;}
	.st14{fill:#505459;}
	.st15{fill:#1A4276;}
	.st16{font-family:'Montserrat-Bold';}
	.st17{font-size:5.7648px;}
	.st18{fill:#8FAAD6;}
	.st19{fill:#FF7C85;}
	.st20{fill:#DEDEDE;}
</style>
<g id="XMLID_184_">
	<ellipse id="XMLID_185_" class="st0" cx="130.8" cy="280.6" rx="74.6" ry="9.4"/>
	<g id="XMLID_186_">
		<g id="XMLID_187_">
			<path id="XMLID_188_" class="st1" d="M168.5,69.6l18.4,3.4c0.7,0.1,1.5-0.4,1.7-1.3c0.3-0.8-0.1-1.6-0.8-1.8l-18.4-3.4
				c-0.7-0.1-1.5,0.4-1.7,1.3C167.5,68.7,167.8,69.5,168.5,69.6z"/>
			<path id="XMLID_189_" class="st2" d="M167.7,67.8c0.3-0.8,1-1.4,1.7-1.3l18.4,3.4c0.7,0.1,1,0.9,0.8,1.8
				c-0.3,0.8-1.1,1.4-1.7,1.3l-18.4-3.4C167.8,69.5,167.5,68.7,167.7,67.8z M218.8,86.3L166.4,250c-0.8,2.6-3.2,4.4-5.4,4l-79-14.7
				c-2.1-0.4-3.2-2.8-2.4-5.4l52.5-163.7c0.8-2.6,3.2-4.4,5.4-4l25.3,4.7l31.5,5.9l22.2,4.1C218.6,81.3,219.7,83.7,218.8,86.3z
				 M221,73.9l-26.8-5L162.8,63l-25.1-4.7c-3.2-0.6-6.8,2.1-8.1,6l-22.1,68.9l-16.1,50.1l-17.8,55.4c-1.2,3.9,0.3,7.6,3.6,8.2
				l83.3,15.5c3.2,0.6,6.8-2.1,8.1-6L224.6,82C225.8,78.1,224.2,74.5,221,73.9z"/>
		</g>
		<path id="XMLID_193_" class="st3" d="M218.8,86.3l-41.4,129l-6,18.6l-2.8,8.6l-2.4,7.4c-0.8,2.6-3.3,4.4-5.4,4l-20.8-3.9l-4.8-0.9
			l-17.5-3.3L82,239.2c-2.1-0.4-3.2-2.8-2.4-5.4l26.4-82.3l12.3-38.4l3.4-10.6l10.4-32.3c0.8-2.6,3.2-4.4,5.4-4l9.5,1.8l3.9,0.7
			l8.5,1.6l57.1,10.7C218.6,81.3,219.7,83.7,218.8,86.3z"/>
		<path id="XMLID_194_" class="st4" d="M228,81.3v0.3c0,0-0.1,0.1-0.1,0.1c0,0.1-0.1,0.3-0.1,0.4c0,0,0,0.1,0,0.1c0,0.1,0,0.1,0,0.2
			c0,0,0,0.1,0,0.1c0,0.2,0,0.3-0.1,0.5c0,0,0,0.1,0,0.1c0,0.1-0.1,0.3-0.1,0.4c0,0,0,0.1,0,0.1c0,0,0,0.1,0,0.1
			c0,0.1-0.1,0.3-0.1,0.4l-10.9,34.1l-14.8,46.3l-29.8,94c0,0.1,0.2,0.2,0.2,0.3c0,0,0,0,0,0c0,0.2-0.5,0.4-0.6,0.5
			c0,0-0.2,0-0.2,0.1c0,0-0.1,0-0.1,0c-0.1,0.1-0.2,0.3-0.3,0.4c0,0,0,0,0,0c0,0,0,0,0,0.1c-0.1,0.1-0.1,0.2-0.2,0.3c0,0,0,0,0,0.1
			c0,0,0,0,0,0.1c-0.1,0.1-0.1,0.2-0.2,0.3c0,0,0,0,0,0.1c0,0,0,0,0,0c-0.1,0.1-0.2,0.2-0.2,0.4c0,0,0,0,0,0c0,0,0,0-0.1,0.1
			c-0.1,0.1-0.1,0.2-0.2,0.3c0,0,0,0,0,0.1c0,0,0,0-0.1,0.1c-0.1,0.1-0.1,0.2-0.2,0.2c0,0,0,0-0.1,0.1c0,0,0,0,0,0
			c-0.1,0.1-0.2,0.2-0.3,0.3c0,0,0,0,0,0c0,0,0,0,0,0c-0.1,0.1-0.2,0.2-0.3,0.3c0,0,0,0,0,0c0,0,0,0-0.1,0c-0.1,0.1-0.2,0.2-0.3,0.3
			c0,0,0,0,0,0c0,0,0,0,0,0c-0.1,0.1-0.3,0.2-0.4,0.3c0,0,0,0,0,0s0,0,0,0c-0.1,0.1-0.3,0.2-0.5,0.3c0,0,0,0,0,0c0,0-0.1,0-0.1,0
			c-0.1,0-0.1,0.1-0.2,0.1c0,0-0.1,0-0.1,0.1c-0.1,0-0.1,0.1-0.2,0.1c0,0-0.1,0-0.1,0c0,0,0,0,0,0c-0.1,0.1-0.2,0.1-0.4,0.2
			c0,0,0,0,0,0c-0.1,0.1-0.3,0.1-0.4,0.1c0,0-0.1,0-0.1,0c-0.1,0-0.2,0.1-0.3,0.1c0,0-0.1,0-0.1,0c-0.1,0-0.3,0.1-0.4,0.1
			c0,0-0.1,0-0.1,0c-0.1,0-0.2,0-0.3,0c0,0-0.1,0-0.1,0c-0.1,0-0.3,0-0.4,0c0,0,0,0-0.1,0c-0.1,0-0.2,0-0.3,0c0,0-0.1,0-0.1,0
			c-0.1,0-0.3,0-0.4-0.1L80,248.9c-0.7-0.1-1.3-0.4-1.9-0.8l-2.8-2.1c0.5,0.4,1.2,0.7,1.9,0.8l83.3,15.5c0.1,0,0.3,0,0.4,0.1
			c0,0,0.1-0.2,0.1-0.2c0.1,0,0.2-0.2,0.3-0.2h0.1c0.1,0,0.3,0.2,0.4,0.2c0,0,0.1,0.1,0.1,0.1c0.1,0,0.2,0,0.3,0c0,0,0.1,0,0.1,0
			c0.1,0,0.3,0,0.4-0.1c0,0,0.1,0,0.1,0c0.1,0,0.2,0,0.3-0.1c0,0,0.1,0,0.1,0c0.1,0,0.3-0.1,0.4-0.1c0,0,0,0,0,0
			c0.1,0,0.2-0.1,0.4-0.2c0,0,0.1,0,0.1-0.1c0.1,0,0.1-0.1,0.2-0.1c0,0,0.1,0,0.1-0.1c0.1,0,0.1-0.1,0.2-0.1c0,0,0.1,0,0.1-0.1
			c0.2-0.1,0.3-0.2,0.5-0.3c0,0,0.1,0,0.1-0.1c0.1-0.1,0.3-0.2,0.4-0.3c0,0,0,0,0,0c0.1-0.1,0.2-0.2,0.3-0.3c0,0,0.1-0.1,0.1-0.1
			c0.1-0.1,0.2-0.2,0.3-0.3l0,0c0.1-0.1,0.2-0.2,0.3-0.3c0,0,0.1-0.1,0.1-0.1c0.1-0.1,0.1-0.2,0.2-0.2c0,0,0.1-0.1,0.1-0.1
			c0.1-0.1,0.1-0.2,0.2-0.3c0,0,0-0.1,0.1-0.1c0.1-0.1,0.2-0.2,0.2-0.4c0,0,0-0.1,0.1-0.1c0.1-0.1,0.1-0.2,0.2-0.3
			c0,0,0-0.1,0.1-0.1c0.1-0.1,0.1-0.2,0.2-0.3c0,0,0,0,0-0.1c0.1-0.1,0.1-0.3,0.2-0.4c0,0,0-0.1,0-0.1c0.1-0.2,0.2-0.4,0.2-0.5
			c0-0.1,0.1-0.2,0.1-0.3l29.4-91.6l17.6-55l8.9-27.8c0.1-0.2,0.1-0.3,0.1-0.5c0,0,0-0.1,0-0.1c0-0.1,0.1-0.3,0.1-0.4
			c0,0,0-0.1,0-0.1c0-0.2,0.1-0.3,0.1-0.5c0,0,0-0.1,0-0.1c0-0.1,0-0.2,0-0.3c0-0.1,0-0.3,0-0.4c0-0.1,0-0.2,0-0.3v-0.1
			c0-0.1,0-0.3,0-0.4c0,0,0,0,0,0c0-0.1,0-0.3-0.1-0.4c0,0,0-0.1,0-0.1c0-0.1,0-0.2-0.1-0.4c0,0,0-0.1,0-0.1c0-0.1-0.1-0.3-0.1-0.4
			c-0.1-0.2-0.1-0.3-0.2-0.5c0-0.1-0.1-0.1-0.1-0.2c0-0.1-0.1-0.2-0.1-0.3c-0.1-0.1-0.1-0.3-0.2-0.4c0,0,0,0,0-0.1
			c-0.1-0.1-0.1-0.2-0.2-0.3c0,0-0.1-0.1-0.1-0.1c-0.1-0.1-0.1-0.1-0.2-0.2l-0.1-0.1c-0.1-0.1-0.1-0.1-0.2-0.2c0,0-0.1-0.1-0.1-0.1
			c-0.1,0-0.1-0.1-0.1-0.1l2.6,1.9c0.1,0.1,0.2,0.1,0.2,0.2c0,0,0,0,0.1,0.1c0,0,0.1,0.1,0.1,0.1c0,0,0.1,0.1,0.1,0.1
			c0,0,0.1,0.1,0.1,0.1l0.1,0.1c0,0,0,0,0.1,0.1c0,0,0.1,0.1,0.1,0.2c0,0,0.1,0.1,0.1,0.1c0,0,0,0,0,0c0.1,0.1,0.2,0.2,0.2,0.3
			c0,0,0.1,0,0.1,0.1v0c0,0.1,0,0.2,0,0.4c0,0,0,0,0,0c0,0.1,0,0.2,0,0.3c0,0.1,0,0.1,0,0.2c0,0,0,0,0,0c1,0.2,0.3,0.3,0.3,0.5
			c0,0,0.1,0,0.1,0c0,0.1,0.1,0.3,0.1,0.4c0,0,0,0.1,0,0.1c0,0.1,0,0.1,0.1,0.2c0,0,0,0.1,0,0.1c0,0,0,0.1,0,0.1
			c0,0.1,0,0.3,0.1,0.5c0,0,0.1,0,0.1,0C227.9,81,228,81.1,228,81.3z"/>
		<g id="XMLID_195_" class="st5">
			<polygon id="XMLID_196_" class="st6" points="135.3,249.2 117.8,245.9 106,151.5 118.3,113 			"/>
			<path id="XMLID_197_" class="st6" d="M168.7,242.5l-2.4,7.4c-0.8,2.6-3.3,4.4-5.4,4l-20.8-3.9l-18.4-147.6l10.4-32.3
				c0.8-2.6,3.2-4.4,5.4-4l9.5,1.8L168.7,242.5z"/>
			<polygon id="XMLID_198_" class="st6" points="177.5,215.3 171.5,233.9 150.9,68.6 159.4,70.2 			"/>
		</g>
	</g>
	<g id="XMLID_199_">
		<g id="XMLID_200_">
			<path id="XMLID_324_" class="st7" d="M129.2,74.2c2.9-5.5,4-12.2,2.5-18.9c-3.2-14-16.5-22.7-29.8-19.4
				c-13.3,3.4-21.5,17.5-18.3,31.5c3.2,14,16.5,22.7,29.8,19.4c3.4-0.9,6.5-2.4,9.1-4.5l12.2-0.9L129.2,74.2z"/>
			<g id="XMLID_201_">
				<path id="XMLID_321_" class="st8" d="M98.5,46.7l10.5-2.7l2.5,19.4l-7,1.8L98.5,46.7z M104.5,72.6c-0.7-2.9,0.9-5.7,4-6.5
					c3-0.8,5.6,0.9,6.3,3.9c0.7,2.9-0.9,5.8-3.9,6.6C107.8,77.4,105.1,75.5,104.5,72.6z"/>
			</g>
		</g>
		<g id="XMLID_202_">
			<g id="XMLID_203_">
				<path id="XMLID_316_" class="st9" d="M181.6,184.8c0.3-6.3,2.8-12.6,7.5-17.3c9.8-10,25.5-9.7,34.9,0.6
					c9.5,10.4,9.2,26.9-0.6,37c-9.8,10-25.5,9.7-34.9-0.6c-2.4-2.7-4.2-5.7-5.4-9l-9.9-7.7L181.6,184.8z"/>
			</g>
			<g id="XMLID_204_">
				<g id="XMLID_103_">
					<path id="XMLID_108_" class="st8" d="M214.7,199.4l-2.3,3.8l-22.8-15.4l2.3-3.8l0.4,0c1.3,0.1,2.6-0.5,3.5-1.6
						c3-3.8,10.7-12.4,17.8-7.6c7.1,4.8,3,15.8,0.9,20.3c-0.6,1.3-0.5,2.7,0.1,4L214.7,199.4z"/>
					<path id="XMLID_107_" class="st8" d="M197.8,194.3c0-0.1,0.1-0.1,0.1-0.2l5.6,3.8c0,0.1-0.1,0.2-0.1,0.2
						c-1,1.7-3.1,2.1-4.6,1.1C197.2,198.1,196.8,196,197.8,194.3z"/>
					<path id="XMLID_104_" class="st8" d="M212,177.3c-1.6-1.1-2.1-3.4-1.1-5.2c1-1.7,3.2-2.3,4.9-1.1c1.6,1.1,2.1,3.4,1.1,5.2
						C215.9,177.9,213.7,178.4,212,177.3z M214.9,172.4c-0.9-0.6-2-0.3-2.6,0.6c-0.6,0.9-0.3,2.1,0.6,2.7c0.9,0.6,2,0.3,2.6-0.6
						C216.1,174.3,215.8,173,214.9,172.4z"/>
				</g>
			</g>
		</g>
		<g id="XMLID_205_">
			<g id="XMLID_206_">
				<g id="XMLID_207_">
					<g id="XMLID_35_">
						<g id="XMLID_36_">
							<path id="XMLID_37_" class="st10" d="M92,194.5c-0.9-5.1-3.6-9.9-7.9-13.3c-9-7.1-21.8-5.1-28.5,4.5
								c-6.7,9.5-4.8,23,4.2,30.1c9,7.1,21.8,5.1,28.5-4.5c1.7-2.4,2.9-5.2,3.5-7.9l7.3-7.4L92,194.5z"/>
						</g>
					</g>
				</g>
			</g>
			<g id="XMLID_208_">
				<g id="XMLID_116_">
					<path id="XMLID_120_" class="st8" d="M70.1,199.3l-0.8,1.9l1.3,1.1l1.3,1.1l1.6-1.4c0.5,0.2,1,0.3,1.6,0.4l0.8,2l1.6-0.2
						l1.6-0.2l0.2-2.3c0.5-0.2,0.9-0.5,1.3-0.8l2,0.9l1-1.4l1-1.4l-1.4-1.8c0.2-0.5,0.3-1,0.4-1.5l2-0.8l-0.2-1.7l-0.2-1.7l-2.2-0.3
						c-0.2-0.5-0.5-1-0.8-1.4l0.9-2.1l-1.3-1.1l-1.3-1.1l-1.7,1.4c-0.5-0.2-1-0.4-1.6-0.4l-0.8-2l-1.6,0.2l-1.6,0.2l-0.2,2.2
						c-0.5,0.2-1,0.5-1.5,0.9l-1.8-0.9l-1,1.4l-1,1.4l1.3,1.7c-0.2,0.6-0.3,1.2-0.4,1.8l-1.8,0.8l0.2,1.7l0.2,1.7l2,0.2
						C69.5,198.3,69.8,198.8,70.1,199.3z M73.2,194.8c-0.2-1.8,1-3.4,2.6-3.6c1.7-0.2,3.2,1,3.4,2.8c0.2,1.8-1,3.4-2.6,3.6
						S73.4,196.6,73.2,194.8z"/>
					<path id="XMLID_117_" class="st8" d="M55.3,204.4l0.5,1.2l0.5,1.2l1.5-0.3c0.3,0.3,0.6,0.6,0.9,0.8l-0.2,1.6l1.1,0.4l1.1,0.4
						l0.9-1.4c0.4,0,0.8,0,1.1-0.1l1,1.3l1.1-0.5l1.1-0.5l-0.3-1.7c0.3-0.3,0.5-0.5,0.7-0.9l1.6,0.2l0.4-1.2l0.4-1.2l-1.3-1
						c0-0.4,0-0.8,0-1.2l1.2-1l-0.5-1.2l-0.5-1.2l-1.5,0.3c-0.3-0.3-0.5-0.6-0.9-0.8l0.2-1.6l-1.1-0.4l-1.1-0.4l-0.8,1.3
						c-0.4,0-0.8,0-1.2,0.1l-0.9-1.2l-1.1,0.5l-1.1,0.5l0.3,1.5c-0.3,0.3-0.6,0.6-0.8,1l-1.4-0.2l-0.4,1.2l-0.4,1.2l1.2,0.9
						c0,0.4,0,0.9,0.1,1.3L55.3,204.4z M59.9,201.7c0.4-1.2,1.7-1.9,2.9-1.4c1.2,0.5,1.8,1.8,1.3,3c-0.4,1.2-1.7,1.9-2.9,1.4
						C60,204.3,59.4,202.9,59.9,201.7z"/>
				</g>
			</g>
		</g>
	</g>
	<g id="XMLID_209_">
		<g id="XMLID_210_">
			<g id="XMLID_81_">
				<path id="XMLID_85_" class="st2" d="M240.3,69.4c-0.6,0.3-0.8,1-0.6,1.6l1.5,3.6c0.3,0.6,0.9,0.9,1.5,0.6c0.6-0.3,0.8-1,0.6-1.6
					l-1.5-3.6C241.6,69.4,240.9,69.1,240.3,69.4z"/>
				<path id="XMLID_84_" class="st2" d="M244.2,78.4c-0.6,0.3-0.8,1-0.6,1.6l1.5,3.6c0.3,0.6,0.9,0.9,1.5,0.6c0.6-0.3,0.8-1,0.6-1.6
					l-1.5-3.6C245.4,78.4,244.8,78.1,244.2,78.4z"/>
				<path id="XMLID_83_" class="st2" d="M249,72.8l-3.4,1.6c-0.6,0.3-0.8,1-0.6,1.6c0.3,0.6,0.9,0.9,1.5,0.6l3.4-1.6
					c0.6-0.3,0.8-1,0.6-1.6C250.2,72.8,249.6,72.6,249,72.8z"/>
				<path id="XMLID_82_" class="st2" d="M240.5,76.9l-3.4,1.6c-0.6,0.3-0.8,1-0.6,1.6c0.3,0.6,0.9,0.9,1.5,0.6l3.4-1.6
					c0.6-0.3,0.8-1,0.6-1.6C241.7,76.9,241,76.6,240.5,76.9z"/>
			</g>
		</g>
		<g id="XMLID_211_">
			<g id="XMLID_75_">
				<path id="XMLID_79_" class="st2" d="M80.3,32.8c-0.6-0.2-1.2,0.1-1.4,0.8l-1.2,3.8c-0.2,0.6,0.1,1.3,0.7,1.5
					c0.6,0.2,1.2-0.1,1.4-0.8l1.2-3.8C81.2,33.7,80.9,33,80.3,32.8z"/>
				<path id="XMLID_78_" class="st2" d="M77.4,42.2C76.8,42,76.2,42.4,76,43l-1.2,3.8c-0.2,0.6,0.1,1.3,0.7,1.5
					c0.6,0.2,1.2-0.1,1.4-0.8l1.2-3.8C78.3,43.1,78,42.4,77.4,42.2z"/>
				<path id="XMLID_77_" class="st2" d="M84.5,41.6l-3.6-1.2c-0.6-0.2-1.2,0.1-1.4,0.8c-0.2,0.6,0.1,1.3,0.7,1.5l3.6,1.2
					c0.6,0.2,1.2-0.1,1.4-0.8C85.4,42.5,85.1,41.8,84.5,41.6z"/>
				<path id="XMLID_76_" class="st2" d="M75.6,38.5L72,37.3c-0.6-0.2-1.2,0.1-1.4,0.8c-0.2,0.6,0.1,1.3,0.7,1.5l3.6,1.2
					c0.6,0.2,1.2-0.1,1.4-0.8C76.5,39.4,76.2,38.7,75.6,38.5z"/>
			</g>
		</g>
		<g id="XMLID_212_">
			<g id="XMLID_69_">
				<path id="XMLID_73_" class="st2" d="M169.9,41.9c-0.4,0-0.7,0.3-0.7,0.7l-0.1,2.6c0,0.4,0.3,0.8,0.7,0.8c0.4,0,0.7-0.3,0.7-0.7
					l0.1-2.6C170.6,42.3,170.3,41.9,169.9,41.9z"/>
				<path id="XMLID_72_" class="st2" d="M169.7,48.3c-0.4,0-0.7,0.3-0.7,0.7l-0.1,2.6c0,0.4,0.3,0.8,0.7,0.8c0.4,0,0.7-0.3,0.7-0.7
					l0.1-2.6C170.4,48.7,170.1,48.3,169.7,48.3z"/>
				<path id="XMLID_71_" class="st2" d="M174,46.5l-2.4-0.1c-0.4,0-0.7,0.3-0.7,0.7c0,0.4,0.3,0.8,0.7,0.8l2.4,0.1
					c0.4,0,0.7-0.3,0.7-0.7C174.7,46.9,174.4,46.5,174,46.5z"/>
				<path id="XMLID_70_" class="st2" d="M167.9,46.3l-2.4-0.1c-0.4,0-0.7,0.3-0.7,0.7c0,0.4,0.3,0.8,0.7,0.8l2.4,0.1
					c0.4,0,0.7-0.3,0.7-0.7C168.7,46.7,168.3,46.4,167.9,46.3z"/>
			</g>
		</g>
		<g id="XMLID_213_">
			<g id="XMLID_63_">
				<path id="XMLID_67_" class="st2" d="M51.2,119.8c-0.4,0-0.7,0.3-0.7,0.7l-0.1,2.6c0,0.4,0.3,0.8,0.7,0.8s0.7-0.3,0.7-0.7
					l0.1-2.6C51.9,120.2,51.6,119.8,51.2,119.8z"/>
				<path id="XMLID_66_" class="st2" d="M51,126.2c-0.4,0-0.7,0.3-0.7,0.7l-0.1,2.6c0,0.4,0.3,0.8,0.7,0.8c0.4,0,0.7-0.3,0.7-0.7
					l0.1-2.6C51.7,126.6,51.4,126.2,51,126.2z"/>
				<path id="XMLID_65_" class="st2" d="M55.3,124.4l-2.4-0.1c-0.4,0-0.7,0.3-0.7,0.7c0,0.4,0.3,0.8,0.7,0.8l2.4,0.1
					c0.4,0,0.7-0.3,0.7-0.7C56,124.8,55.7,124.4,55.3,124.4z"/>
				<path id="XMLID_64_" class="st2" d="M49.2,124.2l-2.4-0.1c-0.4,0-0.7,0.3-0.7,0.7c0,0.4,0.3,0.8,0.7,0.8l2.4,0.1
					c0.4,0,0.7-0.3,0.7-0.7C49.9,124.6,49.6,124.2,49.2,124.2z"/>
			</g>
		</g>
		<g id="XMLID_214_">
			<g id="XMLID_59_">
				<path id="XMLID_68_" class="st2" d="M241.6,117c-0.4,0.2-0.6,0.6-0.4,1l0.9,2.4c0.2,0.4,0.6,0.6,1,0.4c0.4-0.2,0.6-0.6,0.4-1
					l-0.9-2.4C242.4,117,242,116.8,241.6,117z"/>
				<path id="XMLID_62_" class="st2" d="M243.9,122.9c-0.4,0.2-0.6,0.6-0.4,1l0.9,2.4c0.2,0.4,0.6,0.6,1,0.4c0.4-0.2,0.6-0.6,0.4-1
					l-0.9-2.4C244.7,122.9,244.3,122.8,243.9,122.9z"/>
				<path id="XMLID_61_" class="st2" d="M247.2,119.4l-2.2,1c-0.4,0.2-0.6,0.6-0.4,1c0.2,0.4,0.6,0.6,1,0.4l2.2-1
					c0.4-0.2,0.6-0.6,0.4-1C248,119.5,247.5,119.3,247.2,119.4z"/>
				<path id="XMLID_60_" class="st2" d="M241.6,121.9l-2.2,1c-0.4,0.2-0.6,0.6-0.4,1c0.2,0.4,0.6,0.6,1,0.4l2.2-1
					c0.4-0.2,0.6-0.6,0.4-1C242.4,121.9,241.9,121.7,241.6,121.9z"/>
			</g>
		</g>
		<g id="XMLID_215_">
			<g id="XMLID_74_">
				<path id="XMLID_88_" class="st2" d="M242.2,165.1c-0.4,0-0.7,0.3-0.7,0.7l-0.1,2.6c0,0.4,0.3,0.8,0.7,0.8c0.4,0,0.7-0.3,0.7-0.7
					l0.1-2.6C242.9,165.5,242.6,165.1,242.2,165.1z"/>
				<path id="XMLID_87_" class="st2" d="M242,171.5c-0.4,0-0.7,0.3-0.7,0.7l-0.1,2.6c0,0.4,0.3,0.8,0.7,0.8c0.4,0,0.7-0.3,0.7-0.7
					l0.1-2.6C242.8,171.9,242.4,171.5,242,171.5z"/>
				<path id="XMLID_86_" class="st2" d="M246.3,169.7l-2.4-0.1c-0.4,0-0.7,0.3-0.7,0.7s0.3,0.8,0.7,0.8l2.4,0.1
					c0.4,0,0.7-0.3,0.7-0.7C247,170.1,246.7,169.7,246.3,169.7z"/>
				<path id="XMLID_80_" class="st2" d="M240.3,169.5l-2.4-0.1c-0.4,0-0.7,0.3-0.7,0.7c0,0.4,0.3,0.8,0.7,0.8l2.4,0.1
					c0.4,0,0.7-0.3,0.7-0.7C241,169.9,240.7,169.6,240.3,169.5z"/>
			</g>
		</g>
		<g id="XMLID_220_">
			<g id="XMLID_89_">
				<path id="XMLID_93_" class="st2" d="M51.7,160.2c-0.6,0.3-0.8,1-0.6,1.6l1.5,3.6c0.2,0.6,0.9,0.9,1.5,0.6c0.6-0.3,0.8-1,0.6-1.6
					l-1.5-3.6C52.9,160.3,52.3,160,51.7,160.2z"/>
				<path id="XMLID_92_" class="st2" d="M55.4,169.3c-0.6,0.3-0.8,1-0.6,1.6l1.5,3.6c0.2,0.6,0.9,0.9,1.5,0.6c0.6-0.3,0.8-1,0.6-1.6
					l-1.5-3.6C56.7,169.3,56,169,55.4,169.3z"/>
				<path id="XMLID_91_" class="st2" d="M60.3,163.8l-3.4,1.6c-0.6,0.3-0.8,1-0.6,1.6c0.2,0.6,0.9,0.9,1.5,0.6l3.4-1.6
					c0.6-0.3,0.8-1,0.6-1.6C61.6,163.8,60.9,163.6,60.3,163.8z"/>
				<path id="XMLID_90_" class="st2" d="M51.8,167.8l-3.4,1.6c-0.6,0.3-0.8,1-0.6,1.6c0.2,0.6,0.9,0.9,1.5,0.6l3.4-1.6
					c0.6-0.3,0.8-1,0.6-1.6C53,167.8,52.3,167.5,51.8,167.8z"/>
			</g>
		</g>
	</g>
	<g id="XMLID_225_">
		<defs>
			<rect id="XMLID_328_" x="10" y="11" width="281" height="298"/>
		</defs>
		<clipPath id="XMLID_2_">
			<use xlink:href="#XMLID_328_"  style="overflow:visible;"/>
		</clipPath>
		<g id="XMLID_226_" class="st11">
			<path id="XMLID_231_" class="st12" d="M216.4,118.2l-14.8,46.3l-3.5,0.4l-49.4,4.8c-2.3,0.2-4.4-1.6-4.6-4l-6.7-76.9
				c-0.2-2.5,1.5-4.6,3.8-4.9l67.5-6.6c2.3-0.2,4.4,1.6,4.6,4l2.5,28.5L216.4,118.2z"/>
			<g id="XMLID_232_">
				<path id="XMLID_233_" class="st13" d="M207.5,57.2l-64.8,21.2c-2.2,0.7-3.5,3.2-2.8,5.6l21.6,73.8c0.7,2.4,3.1,3.7,5.3,2.9
					l64.8-21.2c2.2-0.7,3.5-3.2,2.8-5.6l-21.6-73.8C212.1,57.8,209.7,56.5,207.5,57.2z"/>
				<g id="XMLID_234_">
					<path id="XMLID_235_" class="st8" d="M196,86.2c2.4,8.3-2,17.1-9.8,19.6c-7.8,2.6-16.1-2.1-18.6-10.4c-2.4-8.3,2-17.1,9.8-19.6
						C185.3,73.2,193.6,77.9,196,86.2z"/>
					<path id="XMLID_236_" class="st14" d="M196,86.2c2.4,8.3-2,17.1-9.8,19.6c-7.8,2.6-16.1-2.1-18.6-10.4
						c-2.4-8.3,2-17.1,9.8-19.6C185.3,73.2,193.6,77.9,196,86.2z"/>
					<g id="XMLID_237_">
						<path id="XMLID_242_" class="st15" d="M182.5,93c-4.7,1.6-8.2,5.1-9.5,9c3.5,3.1,8.3,4.3,13,2.8c4.7-1.5,8-5.4,9.2-10
							C192,92.3,187.2,91.5,182.5,93z"/>
						<path id="XMLID_243_" class="st15" d="M182.3,92.4c3.5-1.1,5.4-5,4.3-8.7c-1.1-3.7-4.8-5.7-8.2-4.6c-3.5,1.1-5.4,5-4.3,8.7
							C175.2,91.5,178.8,93.6,182.3,92.4z"/>
					</g>
					<path id="XMLID_244_" class="st12" d="M210.7,103l-46.1,15.1c-2.8,0.9-4.4,4.1-3.5,7.1l0,0c0.9,3,3.9,4.7,6.7,3.8l46.1-15.1
						c2.8-0.9,4.4-4.1,3.5-7.1l0,0C216.5,103.8,213.5,102.1,210.7,103z"/>
					<path id="XMLID_245_" class="st12" d="M215.3,118.7l-46.1,15.1c-2.8,0.9-4.4,4.1-3.5,7.1l0,0c0.9,3,3.9,4.7,6.7,3.8l46.1-15.1
						c2.8-0.9,4.4-4.1,3.5-7.1l0,0C221.1,119.4,218.1,117.8,215.3,118.7z"/>
					<g id="XMLID_246_">
						<path id="XMLID_247_" class="st8" d="M180.7,135.2l-0.7,0.2l0.3-0.7c0.2-0.4,0.1-0.8-0.3-1h0c-0.4-0.2-0.8-0.1-1,0.3l-0.3,0.7
							l-0.2-0.7c-0.1-0.4-0.5-0.6-0.9-0.5h0c-0.4,0.1-0.6,0.6-0.5,1l0.2,0.7l-0.6-0.3c-0.4-0.2-0.8-0.1-1,0.3
							c-0.2,0.4-0.1,0.8,0.3,1l0.6,0.3l-0.7,0.2c-0.4,0.1-0.6,0.6-0.5,1l0,0c0.1,0.4,0.5,0.6,0.9,0.5l0.7-0.2l-0.3,0.7
							c-0.2,0.4-0.1,0.8,0.3,1v0c0.4,0.2,0.8,0.1,1-0.3l0.3-0.7l0.2,0.7c0.1,0.4,0.5,0.6,0.9,0.5l0,0c0.4-0.1,0.6-0.6,0.5-1
							l-0.2-0.7l0.6,0.3c0.4,0.2,0.8,0.1,1-0.3v0c0.2-0.4,0.1-0.8-0.3-1l-0.6-0.3l0.7-0.2c0.4-0.1,0.6-0.6,0.5-1v0
							C181.5,135.3,181.1,135,180.7,135.2z"/>
						<path id="XMLID_248_" class="st8" d="M188.3,132.7l-0.7,0.2l0.3-0.7c0.2-0.4,0.1-0.8-0.3-1c-0.4-0.2-0.8-0.1-1,0.3l-0.3,0.7
							l-0.2-0.7c-0.1-0.4-0.5-0.6-0.9-0.5c-0.4,0.1-0.6,0.6-0.5,1l0.2,0.7l-0.6-0.3c-0.4-0.2-0.8-0.1-1,0.3c-0.2,0.4-0.1,0.8,0.3,1
							l0.6,0.3l-0.7,0.2c-0.4,0.1-0.6,0.6-0.5,1l0,0c0.1,0.4,0.5,0.6,0.9,0.5l0.7-0.2l-0.3,0.7c-0.2,0.4-0.1,0.8,0.3,1l0,0
							c0.4,0.2,0.8,0.1,1-0.3l0.3-0.7l0.2,0.7c0.1,0.4,0.5,0.6,0.9,0.5c0.4-0.1,0.6-0.6,0.5-1l-0.2-0.7l0.6,0.3
							c0.4,0.2,0.8,0.1,1-0.3l0,0c0.2-0.4,0.1-0.8-0.3-1l-0.6-0.3l0.7-0.2c0.4-0.1,0.6-0.6,0.5-1v0
							C189.1,132.8,188.7,132.5,188.3,132.7z"/>
						<path id="XMLID_253_" class="st8" d="M195.9,130.2l-0.7,0.2l0.3-0.7c0.2-0.4,0.1-0.8-0.3-1l0,0c-0.4-0.2-0.8-0.1-1,0.3
							l-0.3,0.7l-0.2-0.7c-0.1-0.4-0.5-0.6-0.9-0.5v0c-0.4,0.1-0.6,0.6-0.5,1l0.2,0.7l-0.6-0.3c-0.4-0.2-0.8-0.1-1,0.3
							c-0.2,0.4-0.1,0.8,0.3,1l0.6,0.3l-0.7,0.2c-0.4,0.1-0.6,0.6-0.5,1l0,0c0.1,0.4,0.5,0.6,0.9,0.5l0.7-0.2l-0.3,0.7
							c-0.2,0.4-0.1,0.8,0.3,1h0c0.4,0.2,0.8,0.1,1-0.3l0.3-0.7l0.2,0.7c0.1,0.4,0.5,0.6,0.9,0.5h0c0.4-0.1,0.6-0.6,0.5-1l-0.2-0.7
							l0.6,0.3c0.4,0.2,0.8,0.1,1-0.3l0,0c0.2-0.4,0.1-0.8-0.3-1l-0.6-0.3l0.7-0.2c0.4-0.1,0.6-0.6,0.5-1l0,0
							C196.7,130.3,196.3,130,195.9,130.2z"/>
						<path id="XMLID_254_" class="st8" d="M203.6,127.7l-0.7,0.2l0.3-0.7c0.2-0.4,0.1-0.8-0.3-1l0,0c-0.4-0.2-0.8-0.1-1,0.3
							l-0.3,0.7l-0.2-0.7c-0.1-0.4-0.5-0.6-0.9-0.5l0,0c-0.4,0.1-0.6,0.6-0.5,1l0.2,0.7l-0.6-0.3c-0.4-0.2-0.8-0.1-1,0.3
							c-0.2,0.4-0.1,0.8,0.3,1l0.6,0.3l-0.7,0.2c-0.4,0.1-0.6,0.6-0.5,1h0c0.1,0.4,0.5,0.6,0.9,0.5l0.7-0.2l-0.3,0.7
							c-0.2,0.4-0.1,0.8,0.3,1l0,0c0.4,0.2,0.8,0.1,1-0.3l0.3-0.7l0.2,0.7c0.1,0.4,0.5,0.6,0.9,0.5l0,0c0.4-0.1,0.6-0.6,0.5-1
							l-0.2-0.7l0.6,0.3c0.4,0.2,0.8,0.1,1-0.3l0,0c0.2-0.4,0.1-0.8-0.3-1l-0.6-0.3l0.7-0.2c0.4-0.1,0.6-0.6,0.5-1l0,0
							C204.4,127.8,203.9,127.5,203.6,127.7z"/>
						<path id="XMLID_255_" class="st8" d="M211.2,125.2l-0.7,0.2l0.3-0.7c0.2-0.4,0.1-0.8-0.3-1c-0.4-0.2-0.8-0.1-1,0.3l-0.3,0.7
							L209,124c-0.1-0.4-0.5-0.6-0.9-0.5c-0.4,0.1-0.6,0.6-0.5,1l0.2,0.7l-0.6-0.3c-0.4-0.2-0.8-0.1-1,0.3c-0.2,0.4-0.1,0.8,0.3,1
							l0.6,0.3l-0.7,0.2c-0.4,0.1-0.6,0.6-0.5,1v0c0.1,0.4,0.5,0.6,0.9,0.5l0.7-0.2l-0.3,0.7c-0.2,0.4-0.1,0.8,0.3,1l0,0
							c0.4,0.2,0.8,0.1,1-0.3l0.3-0.7l0.2,0.7c0.1,0.4,0.5,0.6,0.9,0.5c0.4-0.1,0.6-0.6,0.5-1l-0.2-0.7l0.6,0.3
							c0.4,0.2,0.8,0.1,1-0.3l0,0c0.2-0.4,0.1-0.8-0.3-1l-0.6-0.3l0.7-0.2c0.4-0.1,0.6-0.6,0.5-1l0,0
							C212,125.3,211.6,125.1,211.2,125.2z"/>
					</g>
					<text id="XMLID_256_" transform="matrix(0.9071 -0.2971 0.2808 0.9598 173.099 123.4747)" class="st8 st16 st17">USER NAME</text>
					<g id="XMLID_257_">
						<path id="XMLID_258_" class="st18" d="M175.6,147.2c-0.1-0.3-0.3-0.4-0.6-0.3l-0.5,0.2l0.2,1.6l0.2-0.1l-0.1-0.5l0.4-0.1
							c0,0,0.1,0,0.1,0l0.4,0.4l0.2-0.1l-0.4-0.4C175.6,147.7,175.7,147.5,175.6,147.2z M175.1,147.9l-0.4,0.1l-0.1-0.8l0.4-0.1
							c0.2-0.1,0.4,0,0.5,0.2C175.6,147.5,175.4,147.8,175.1,147.9z"/>
						<polygon id="XMLID_265_" class="st18" points="176.2,148 176.2,147.4 176.9,147.2 176.9,147 176.2,147.3 176.1,146.7 
							177,146.4 176.9,146.3 175.9,146.6 176.1,148.2 177.1,147.9 177.1,147.7 						"/>
						<polygon id="XMLID_266_" class="st18" points="178.7,145.7 178.2,147.1 177.5,146.1 177.3,146.1 177.5,147.8 177.6,147.7 
							177.5,146.4 178.2,147.3 178.3,147.3 178.7,146 178.9,147.3 179,147.3 178.9,145.6 						"/>
						<polygon id="XMLID_267_" class="st18" points="179.6,146.9 179.6,146.3 180.3,146.1 180.3,145.9 179.6,146.2 179.5,145.6 
							180.3,145.3 180.3,145.1 179.3,145.5 179.5,147.1 180.5,146.8 180.5,146.6 						"/>
						<polygon id="XMLID_268_" class="st18" points="182.1,144.6 181.6,146 180.8,145 180.7,145 180.9,146.7 181,146.6 180.9,145.3 
							181.6,146.2 181.7,146.2 182.1,144.9 182.2,146.2 182.4,146.2 182.2,144.5 						"/>
						<path id="XMLID_269_" class="st18" d="M183.7,144.9c0.2-0.1,0.2-0.3,0.2-0.5c-0.1-0.2-0.3-0.3-0.5-0.2l-0.6,0.2l0.2,1.6
							l0.7-0.2c0.4-0.1,0.6-0.4,0.5-0.7C184,144.9,183.9,144.9,183.7,144.9z M182.9,144.5l0.5-0.2c0.2-0.1,0.3,0,0.4,0.1
							c0.1,0.2-0.1,0.4-0.3,0.5l-0.5,0.2L182.9,144.5z M183.5,145.6l-0.5,0.2l-0.1-0.6l0.5-0.2c0.2-0.1,0.4,0,0.4,0.1
							C183.9,145.4,183.8,145.5,183.5,145.6z"/>
						<polygon id="XMLID_277_" class="st18" points="184.6,145.3 184.5,144.7 185.3,144.4 185.3,144.3 184.5,144.5 184.4,143.9 
							185.3,143.7 185.3,143.5 184.3,143.8 184.4,145.5 185.5,145.2 185.5,145 						"/>
						<path id="XMLID_278_" class="st18" d="M186.8,143.5c-0.1-0.3-0.3-0.4-0.6-0.3l-0.5,0.2l0.2,1.6l0.2-0.1l-0.1-0.5l0.4-0.1
							c0,0,0.1,0,0.1,0l0.4,0.4l0.2-0.1l-0.4-0.4C186.8,144.1,186.9,143.8,186.8,143.5z M186.3,144.2l-0.4,0.1l-0.1-0.8l0.4-0.1
							c0.2-0.1,0.4,0,0.5,0.2C186.8,143.9,186.6,144.1,186.3,144.2z"/>
						<polygon id="XMLID_281_" class="st18" points="189.1,142.3 188.6,143.7 187.8,142.7 187.7,142.7 187.9,144.4 188,144.3 
							187.9,143 188.6,143.9 188.7,143.9 189.1,142.6 189.3,143.9 189.4,143.9 189.2,142.2 						"/>
						<polygon id="XMLID_282_" class="st18" points="190.9,143.2 190,143.5 190,142.9 190.7,142.7 190.7,142.5 189.9,142.8 
							189.9,142.2 190.7,141.9 190.7,141.7 189.7,142.1 189.9,143.7 190.9,143.4 						"/>
						<path id="XMLID_283_" class="st18" d="M173.6,147.2l-0.2-0.1l-0.1,0.3l-1.5,0.5l0.5,1.6l1.5-0.5l-0.4-1.4L173.6,147.2z
							 M173.6,148.9l-1.2,0.4l-0.4-1.3l1.1-0.4l-0.4,0.8l-0.5-0.2l-0.1,0.2l0.6,0.3l0.4-0.9L173.6,148.9z"/>
					</g>
				</g>
			</g>
			<g id="XMLID_292_">
				<path id="XMLID_293_" class="st19" d="M231.6,25.2c-4-2.1-8.8-0.3-10.8,3.9c-1.8,3.9-0.6,8.5,2.7,10.8L213.3,62l1,3.4l0,0
					L225.6,41c3.8,1.3,7.9-0.5,9.7-4.4C237.3,32.4,235.6,27.3,231.6,25.2z M233.3,35.6c-1.4,3-4.9,4.3-7.7,2.8
					c-2.9-1.5-4-5.1-2.6-8.2c1.4-3,4.9-4.3,7.7-2.8C233.5,28.9,234.7,32.5,233.3,35.6z"/>
				<polygon id="XMLID_296_" class="st20" points="213.3,62 213.3,62 213.3,62 				"/>
				<path id="XMLID_297_" class="st19" d="M180.9,93.5c-7.8-4.1-11.2-14-7.6-22.3l2.3,1.8l-0.4-11.4l-3.7,8.1
					c-4.5,9.6-0.7,21.3,8.4,26c2.9,1.5,6.1,2.1,9.2,1.9l-0.1-2.4C186.2,95.4,183.4,94.9,180.9,93.5z"/>
				<path id="XMLID_299_" class="st19" d="M188.9,94.2c-0.1,0-0.3,0.1-0.2,0.3l0.2,3.9c0,0.2,0.1,0.3,0.3,0.3c0.1,0,0.3-0.1,0.2-0.3
					l-0.2-3.9C189.1,94.3,189,94.2,188.9,94.2z"/>
			</g>
			<g id="XMLID_300_">
				<path id="XMLID_301_" class="st4" d="M228.3,29.2L228.3,29.2c-1.3,0-2.3-1.1-2.3-2.4V9c0-1.3,1-2.4,2.3-2.4l0,0
					c1.3,0,2.3,1.1,2.3,2.4v17.7C230.6,28.1,229.6,29.2,228.3,29.2z"/>
				<path id="XMLID_302_" class="st4" d="M232,22.4c0,1.1-0.7,1.6-1.8,1.6h-3.5c-1,0-1.7-0.5-1.7-1.6v-0.2c0-1.1,0.6-2.2,1.7-2.2
					h3.5c1,0,1.8,1.1,1.8,2.2V22.4z"/>
			</g>
		</g>
		<g id="XMLID_303_" class="st11">
			<path id="XMLID_304_" class="st12" d="M153,144.4l-6,40.7l-0.6,3.7c-0.3,2-2,3.3-3.9,3l-51.1-8.5l16.1-50.1l42.7,7.1
				C152,140.6,153.3,142.4,153,144.4z"/>
			<g id="XMLID_305_">
				<path id="XMLID_306_" class="st19" d="M151.3,143.8l-16.6,41.3c-0.7,1.8-2.7,2.7-4.5,1.9l-67.1-30.2c-1.7-0.8-2.5-2.9-1.8-4.7
					l16.6-41.3c0.7-1.8,2.7-2.7,4.4-1.9l67.1,30.2C151.2,139.9,152,142,151.3,143.8z"/>
				<path id="XMLID_307_" class="st7" d="M136,181.7l-1.4,3.5c-0.7,1.8-2.7,2.7-4.5,1.9l-67.1-30.2c-1.7-0.8-2.5-2.9-1.8-4.7
					l1.4-3.5c6.5-0.2,21.6-0.9,32.3-1.4c6.7-0.3,11.8-0.5,11.8-0.5s3.3,4,7.8,9.3C121.6,164.6,131.7,176.6,136,181.7z"/>
				<path id="XMLID_308_" class="st7" d="M151.3,143.8l-2.3,5.7c-6.9,1.3-23,4.4-34.4,6.6c-7.2,1.4-12.5,2.4-12.5,2.4s-3-4.8-7-11.2
					c-6.4-10.2-15.4-24.6-19.4-30.8l2.3-5.7c0.7-1.8,2.7-2.7,4.4-1.9l67.1,30.2C151.2,139.9,152,142,151.3,143.8z"/>
			</g>
			<g id="XMLID_309_">
				<path id="XMLID_315_" class="st2" d="M53.3,67.7c-2-4.4-7-6.2-11.1-4s-5.8,7.4-3.8,11.8c1.8,4,6.2,5.8,10,4.5l21.9,47.3
					c0.2,0.4,0.4,0.8,0.6,1.1l1.2-3L50.5,78.9C53.9,76.4,55.1,71.7,53.3,67.7z M40.5,74.4c-1.4-3.1-0.2-6.9,2.7-8.4
					c3-1.5,6.5-0.2,8,2.9c1.4,3.1,0.2,6.9-2.7,8.4C45.5,78.8,41.9,77.5,40.5,74.4z"/>
				<path id="XMLID_319_" class="st2" d="M104.6,109.6l-4-8.4l-0.5,11.8l2.6-1.9c3.2,7.5,1.3,16.2-4.7,21.1v3.1
					C106,129.9,108.8,118.8,104.6,109.6z"/>
				<path id="XMLID_320_" class="st1" d="M97.5,131.3c-0.2,0-0.3,0.2-0.3,0.3v4c0,0.2,0.1,0.3,0.3,0.3c0.2,0,0.3-0.2,0.3-0.3v-4
					C97.9,131.5,97.7,131.3,97.5,131.3z"/>
			</g>
			<g id="XMLID_325_">
				<path id="XMLID_326_" class="st19" d="M45.6,67.4L45.6,67.4c-1.3,0-2.3-1-2.3-2.3V8.2c0-1.3,1-2.3,2.3-2.3h0
					c1.3,0,2.3,1,2.3,2.3v56.9C47.9,66.3,46.9,67.4,45.6,67.4z"/>
				<path id="XMLID_327_" class="st19" d="M49,60.5c0,1.1-0.6,2.5-1.7,2.5h-3.5c-1,0-1.8-1.4-1.8-2.5v-0.2c0-1.1,0.7-2.3,1.8-2.3
					h3.5c1,0,1.7,1.2,1.7,2.3V60.5z"/>
			</g>
		</g>
	</g>
</g>
</svg>
